:SAMPLES-PER-SECOND 30
:FULLY-SPECIFIED
:DEGREES
384
root  -0.493592 37.8163 13.0706 -176.088 46.116 -177.888
RightUpLeg  -31.2069 31.0391 -10.4414
RightLeg  29.4253 14.5898 8.53697
RightFoot  -6.89922 -0.365412 8.1964
RightToes  -1.33073e-015 0 -3.6325e-017
Spine  30.9128 -12.7374 -37.6349
Spine1  -5.6772 -24.7905 17.887
HEad  -3.2159 61.3196 -10.0325
LeftShoulder1  2.79571 -12.1144 -10.6522
LeftArm  111.882 -51.2048 177.919
LeftForeArm  70.0309 5.32895 -11.7748
LeftHand  -0.246645 0.021 5.37786
RightShoulder  4.8358 11.6704 25.7682
RightArm  -60.3222 37.8958 28.4091
RightForeArm  151.413 78.5602 128.325
RightHand  -0.24729 -0.0210522 -5.37781
LeftUpLeg  -3.48673 41.9573 18.3301
LeftLeg  34.3766 11.7962 8.92162
LeftFoot  -15.3318 -0.521738 -17.4856
LeftToes  5.09284e-011 3.02203e-011 3.83118e-011
385
root  -1.06508 37.776 13.2284 -176.526 38.7634 -178.131
RightUpLeg  -29.8742 27.3085 -11.1626
RightLeg  29.1409 11.7566 6.80217
RightFoot  -7.60558 -0.357706 9.36001
RightToes  -1.33073e-015 0 -3.6325e-017
Spine  32.3158 -12.8854 -34.5007
Spine1  -2.85257 -25.0539 16.3741
HEad  -5.77681 59.5426 -12.4566
LeftShoulder1  2.93715 -12.6937 -10.9072
LeftArm  105.846 -53.0458 -177.903
LeftForeArm  72.9229 6.49818 -10.8139
LeftHand  -0.246645 0.021 5.37786
RightShoulder  5.78674 13.1016 28.8594
RightArm  -57.8353 36.2493 29.8403
RightForeArm  142.414 79.2913 121.784
RightHand  -0.24729 -0.0210522 -5.37781
LeftUpLeg  -8.5164 37.4544 15.5559
LeftLeg  36.1452 9.69286 7.90329
LeftFoot  -15.8387 -0.51356 -15.3996
LeftToes  5.09284e-011 3.02203e-011 3.83118e-011
386
root  -1.69434 37.7836 13.4154 -176.624 29.0692 -178.332
RightUpLeg  -27.7471 21.8734 -11.9608
RightLeg  28.4705 8.40137 4.69165
RightFoot  -8.2199 -0.352107 10.8376
RightToes  -1.33073e-015 0 -3.6325e-017
Spine  33.3173 -13.583 -30.0238
Spine1  0.7235 -25.4688 15.4221
HEad  -8.4831 55.9906 -15.1733
LeftShoulder1  3.33172 -13.4529 -12.5616
LeftArm  98.7247 -55.5809 -171.517
LeftForeArm  74.9904 6.18325 -10.1375
LeftHand  -0.246645 0.021 5.37786
RightShoulder  6.59549 14.2575 31.1793
RightArm  -54.8664 34.4792 32.3647
RightForeArm  133.278 79.8897 114.496
RightHand  -0.24729 -0.0210522 -5.37781
LeftUpLeg  -14.1214 30.7511 12.3047
LeftLeg  37.352 7.71817 6.6638
LeftFoot  -15.7237 -0.407505 -13.041
LeftToes  5.09284e-011 3.02203e-011 3.83118e-011
387
root  -2.29158 37.8324 13.6098 -176.837 17.9798 -178.936
RightUpLeg  -24.7249 15.6945 -13.1529
RightLeg  27.7903 4.61003 2.4077
RightFoot  -8.83838 -0.331525 12.3701
RightToes  -1.33073e-015 0 -3.6325e-017
Spine  32.766 -14.1146 -24.2674
Spine1  4.84191 -25.1396 15.2372
HEad  -9.45502 48.9338 -17.2184
LeftShoulder1  4.13699 -14.4137 -16.3364
LeftArm  89.7422 -57.8961 -161.602
LeftForeArm  74.9079 6.2325 -10.4315
LeftHand  -0.246645 0.021 5.37786
RightShoulder  7.24578 15.2174 32.7355
RightArm  -51.912 32.619 36.1798
RightForeArm  119.863 80.4468 102.932
RightHand  -0.24729 -0.0210522 -5.37781
LeftUpLeg  -18.7672 23.1308 9.13549
LeftLeg  37.5447 5.5076 4.91094
LeftFoot  -14.8148 -0.229614 -10.4365
LeftToes  5.09284e-011 3.02203e-011 3.83118e-011
388
root  -2.7416 37.9331 13.7638 -177.131 5.98643 179.915
RightUpLeg  -20.6201 9.24107 -14.7801
RightLeg  27.1171 0.409373 0.00521252
RightFoot  -9.48937 -0.285866 13.6311
RightToes  -1.33073e-015 0 -3.6325e-017
Spine  29.3141 -14.1599 -17.1831
Spine1  9.79651 -23.6199 14.8312
HEad  -7.51038 37.6442 -17.0987
LeftShoulder1  4.8884 -15.1262 -19.7556
LeftArm  76.1161 -58.8962 -148.732
LeftForeArm  75.8466 6.09576 -9.80938
LeftHand  -0.246645 0.021 5.37786
RightShoulder  7.89618 16.0358 34.427
RightArm  -49.3134 29.7097 40.5204
RightForeArm  92.4682 80.3145 80.1432
RightHand  -0.24729 -0.0210522 -5.37781
LeftUpLeg  -21.7512 16.4427 6.10729
LeftLeg  36.3124 1.76657 1.78622
LeftFoot  -12.9622 -0.0339423 -7.74052
LeftToes  5.09284e-011 3.02203e-011 3.83118e-011
389
root  -3.00554 38.1142 13.8539 -177.408 -7.44742 178.423
RightUpLeg  -14.777 1.61824 -16.5988
RightLeg  25.9475 -3.87559 -2.26618
RightFoot  -9.8296 -0.268234 15.1851
RightToes  -1.33073e-015 0 -3.6325e-017
Spine  22.9672 -13.7437 -8.93322
Spine1  15.0067 -21.3481 13.8617
HEad  -3.33524 22.4525 -14.3972
LeftShoulder1  5.20942 -15.4503 -21.0751
LeftArm  60.0019 -58.5185 -135.318
LeftForeArm  76.26 5.75561 -7.76539
LeftHand  -0.246645 0.021 5.37786
RightShoulder  8.26636 16.4548 35.4155
RightArm  -47.305 24.7263 44.6348
RightForeArm  59.1505 77.9572 54.125
RightHand  -0.24729 -0.0210522 -5.37781
LeftUpLeg  -22.8788 11.4235 3.10413
LeftLeg  33.5974 -4.7281 -2.9767
LeftFoot  -9.96711 0.12294 -5.37119
LeftToes  5.09284e-011 3.02203e-011 3.83118e-011
